<?xml version="1.0" encoding="utf-8"?>
<!-- Generator: Adobe Illustrator 27.6.1, SVG Export Plug-In . SVG Version: 6.00 Build 0)  -->
<svg version="1.1" id="Layer_1" xmlns="http://www.w3.org/2000/svg" xmlns:xlink="http://www.w3.org/1999/xlink" x="0px" y="0px"
	 viewBox="0 0 2202.32 3150.32" style="enable-background:new 0 0 2202.32 3150.32;" xml:space="preserve">
<style type="text/css">
	.st0{fill:#EAA224;}
	.st1{opacity:0.6;}
	.st2{fill:#F5F5F5;}
	.st3{fill:#FFFFFF;}
	.st4{fill:#371A45;}
	.st5{fill:#D8D8D8;}
	.st6{fill:#22A7F0;}
	.st7{opacity:0.4;}
	.st8{fill:#E81818;}
	.st9{opacity:0.3;}
	.st10{fill:#000070;}
	.st11{fill:#EFB522;}
	.st12{fill:#220F2D;}
	.st13{opacity:0.5;}
	.st14{fill:#FFA726;}
	.st15{opacity:0.25;}
	.st16{fill:#FF50D6;}
	.st17{opacity:0.64;}
	.st18{fill:#33A6DB;}
	.st19{fill:#F7F7F7;}
	.st20{fill:#FF5722;}
	.st21{fill:#97CEF7;}
	.st22{fill:#51F93E;}
	.st23{fill:#31C418;}
	.st24{fill:#F4F4F4;}
	.st25{fill:#E37A33;}
	.st26{fill:#FFCCAA;}
	.st27{fill:#E34889;}
	.st28{fill:#16044E;}
	.st29{fill:none;stroke:#371A45;stroke-width:35;stroke-linecap:round;stroke-linejoin:round;stroke-miterlimit:10;}
	.st30{fill:#FF67A0;}
	.st31{opacity:0.7;}
	.st32{opacity:0.2;}
	.st33{fill:#111A28;}
	.st34{fill:#A7A9B7;}
	.st35{fill:#F9F9F9;}
	.st36{fill:#FFFFFF;stroke:#FFFFFF;stroke-width:10.496;stroke-linecap:round;stroke-linejoin:round;stroke-miterlimit:10;}
	.st37{opacity:0.41;}
	.st38{fill:#FFB200;}
	.st39{fill:#FF9100;}
	.st40{fill:none;stroke:#293856;stroke-width:10.496;stroke-linecap:round;stroke-miterlimit:10;}
	.st41{fill:#D66B09;}
	.st42{fill:#FFD766;}
	.st43{fill:#FFAA39;}
	.st44{fill:#FFCF6E;}
	.st45{fill:#FFEC90;}
	.st46{fill:#FCFCFC;}
	.st47{fill:#F6F6F6;}
	.st48{fill:#00BDFF;}
	.st49{clip-path:url(#SVGID_00000123403791320021654740000009210805755290291646_);}
	.st50{fill:#5CE205;}
	.st51{fill:#54A520;}
	.st52{fill:none;}
	.st53{opacity:0.35;}
	.st54{fill:#99A4C4;}
	.st55{fill:#FFD243;}
	.st56{fill:#FF9D33;}
	.st57{fill:#A1A9B7;}
	.st58{opacity:0.65;}
</style>
<g>
	<g>
		<g>
			<g>
				<g>
					<g>
						<path class="st3" d="M1697.5,613.3c-3.74,0-7.44-1.44-10.23-4.22c-4.68-4.65-5.64-11.87-2.34-17.58l43.81-75.68
							c10.26-17.73,7.99-39.72-5.65-54.73c-44-48.39-68.65-111.04-69.4-176.41c-1.67-145.59,115.32-266.75,260.8-270.09
							c2.1-0.05,4.17-0.07,6.27-0.07c71.93,0,139.39,28.19,189.97,79.38c50.56,51.18,77.92,119.01,77.05,191.01
							c-1.77,145.41-121.59,263.72-267.07,263.72c-0.01,0-1.31,0-1.31,0c-22.68-0.11-45.22-3.09-67.01-8.85
							c-3.68-0.97-7.48-1.46-11.3-1.46c-8.03,0-15.97,2.18-22.96,6.29l-113.26,66.69C1702.57,612.64,1700.03,613.3,1697.5,613.3z"/>
					</g>
					<g>
						<g>
							<path class="st4" d="M1920.76,29.04c140.39,0,254.21,114.67,252.5,255.7c-1.67,137.58-115.11,249.37-252.55,249.37
								c-0.42,0-0.83,0-1.24,0c-21.89-0.11-43.12-3.02-63.37-8.37c-4.94-1.31-9.99-1.95-15.01-1.95c-10.57,0-21.06,2.84-30.33,8.3
								l-113.26,66.69l43.81-75.68c13.33-23.02,10.42-52.1-7.48-71.77c-40.15-44.15-64.89-102.56-65.62-166.81
								c-1.58-137.58,109.06-252.25,246.61-255.41C1916.81,29.06,1918.77,29.04,1920.76,29.04z M1920.76,0
								c-2.21,0-4.39,0.02-6.61,0.08c-153.38,3.52-276.74,131.27-274.98,284.77c0.79,68.94,26.78,135,73.18,186.02
								c9.38,10.3,10.91,25.45,3.83,37.68l-43.81,75.68c-6.61,11.42-4.69,25.86,4.68,35.16c5.59,5.55,12.99,8.43,20.47,8.43
								c5.05,0,10.14-1.32,14.73-4.02l113.26-66.69c4.76-2.8,10.15-4.28,15.59-4.28c2.56,0,5.12,0.33,7.58,0.98
								c22.98,6.08,46.75,9.22,70.65,9.33l1.38,0c153.41,0,279.73-124.74,281.59-278.06c0.92-75.91-27.93-147.43-81.24-201.39
								C2067.73,29.72,1996.6,0,1920.76,0L1920.76,0z"/>
						</g>
					</g>
				</g>
				<g class="st32">
					<path class="st4" d="M2172.91,268.89c-0.14-2.77-0.32-5.53-0.54-8.28c-0.12-1.41-0.23-2.82-0.37-4.22
						c-0.28-2.78-0.61-5.54-0.98-8.3c-0.16-1.19-0.29-2.39-0.46-3.58c-0.54-3.66-1.16-7.29-1.85-10.9c-0.3-1.57-0.66-3.12-0.99-4.68
						c-0.45-2.14-0.92-4.27-1.43-6.38c-0.45-1.87-0.92-3.72-1.41-5.58c-0.46-1.73-0.94-3.44-1.43-5.15
						c-0.58-2.01-1.15-4.02-1.78-6.01c-0.38-1.19-0.79-2.37-1.18-3.56c-1.53-4.63-3.19-9.21-4.98-13.71
						c-0.25-0.64-0.49-1.29-0.75-1.93c-1.02-2.5-2.09-4.97-3.18-7.42c-0.33-0.74-0.66-1.49-1-2.22c-1.17-2.56-2.37-5.11-3.62-7.63
						c-0.1-0.2-0.2-0.39-0.3-0.58c-5.72-11.41-12.27-22.34-19.58-32.69c12.5,30.46,19.26,63.9,18.84,98.98
						c-1.43,117.9-84.97,216.8-195.34,242.7c-117.02,26.37-185.26,4.71-226.88-36.04c-0.21-0.24-34.56-34.87-34.77-35.11
						c-6.96-7.66,4.15-20.75-1.85-29.22c0,0,0,0.01,0.01,0.01c0.95,2.32,1.96,4.61,2.98,6.89c-0.02-0.02-0.03-0.04-0.05-0.06
						c11.02,24.71,25.87,47.34,43.84,67.09c17.89,19.68,20.8,48.75,7.47,71.77l-43.81,75.68l113.26-66.69
						c13.67-8.05,30-10.41,45.34-6.35c20.24,5.35,41.48,8.26,63.37,8.37c3.97,0.02,7.91-0.08,11.84-0.24
						c3.65-0.15,7.27-0.42,10.88-0.73c0.54-0.05,1.09-0.07,1.63-0.12c3.31-0.31,6.59-0.71,9.87-1.15c0.83-0.11,1.66-0.19,2.49-0.31
						c3.08-0.44,6.13-0.97,9.17-1.52c1-0.18,2.01-0.33,3.01-0.52c2.9-0.56,5.77-1.21,8.63-1.87c1.12-0.26,2.24-0.49,3.35-0.76
						c2.75-0.67,5.47-1.43,8.19-2.19c1.19-0.34,2.4-0.65,3.58-1c2.63-0.78,5.22-1.64,7.81-2.5c1.25-0.42,2.5-0.81,3.74-1.25
						c2.51-0.88,4.99-1.83,7.46-2.79c1.28-0.5,2.58-0.98,3.85-1.5c2.4-0.97,4.77-2.01,7.13-3.06c1.31-0.58,2.63-1.15,3.93-1.75
						c2.29-1.06,4.55-2.18,6.8-3.3c1.33-0.67,2.67-1.32,3.99-2.01c2.19-1.14,4.35-2.33,6.5-3.54c1.34-0.75,2.67-1.49,4-2.27
						c2.09-1.22,4.15-2.48,6.2-3.76c1.34-0.83,2.67-1.67,3.99-2.52c1.99-1.29,3.95-2.62,5.9-3.96c1.33-0.92,2.66-1.84,3.98-2.79
						c1.89-1.36,3.75-2.75,5.6-4.15c1.32-1,2.63-2.01,3.93-3.04c1.79-1.42,3.56-2.86,5.32-4.33c1.3-1.09,2.6-2.19,3.88-3.31
						c1.69-1.47,3.37-2.97,5.02-4.49c1.28-1.17,2.54-2.36,3.8-3.56c1.6-1.53,3.18-3.08,4.74-4.65c1.25-1.26,2.48-2.53,3.7-3.81
						c1.5-1.58,2.99-3.17,4.45-4.78c1.21-1.34,2.4-2.7,3.59-4.06c1.41-1.62,2.81-3.26,4.17-4.92c1.17-1.42,2.31-2.86,3.45-4.3
						c1.31-1.66,2.61-3.33,3.88-5.03c1.13-1.5,2.22-3.03,3.32-4.56c1.21-1.7,2.42-3.4,3.6-5.13c1.07-1.58,2.11-3.19,3.15-4.8
						c1.12-1.73,2.23-3.46,3.31-5.21c1.02-1.67,2-3.36,2.98-5.05c1.02-1.76,2.04-3.51,3.02-5.29c0.96-1.74,1.87-3.52,2.79-5.29
						c0.92-1.78,1.85-3.55,2.73-5.35c0.89-1.82,1.73-3.68,2.58-5.53c0.82-1.8,1.66-3.58,2.45-5.4c0.82-1.9,1.58-3.83,2.35-5.75
						c0.73-1.81,1.47-3.61,2.16-5.45c0.74-1.98,1.42-3.98,2.11-5.98c0.63-1.82,1.29-3.64,1.88-5.48c0.66-2.06,1.25-4.14,1.85-6.22
						c0.53-1.82,1.09-3.64,1.59-5.48c0.57-2.15,1.07-4.33,1.59-6.5c0.43-1.81,0.9-3.6,1.29-5.42c0.49-2.27,0.89-4.56,1.31-6.85
						c0.33-1.76,0.7-3.51,0.99-5.29c0.4-2.42,0.7-4.86,1.02-7.3c0.22-1.68,0.5-3.34,0.69-5.03c0.31-2.74,0.51-5.5,0.73-8.26
						c0.11-1.42,0.28-2.82,0.37-4.24c0.26-4.2,0.43-8.43,0.48-12.68c0.05-4.05-0.03-8.06-0.16-12.06
						C2173.04,271.41,2172.97,270.15,2172.91,268.89z"/>
				</g>
				<g>
					<path class="st4" d="M1861.77,393.71c-11.38,0-23.09-1.09-32.02-8.52c-13.6-11.32-13.6-31.39-7.57-46.27
						c0.1-0.26,0.21-0.52,0.32-0.77c-18.22,6.2-37.66,8.12-59.16,1.88c-3.3-0.96-5.2-4.41-4.24-7.71c0.96-3.3,4.43-5.21,7.71-4.24
						c23.83,6.91,44.91,2.35,65.25-7.2c0.18-0.27,0.35-0.54,0.53-0.81c-0.71-0.25-1.43-0.51-2.14-0.78
						c-4.53-1.73-11.05-4.73-15.33-10.78c-0.46-0.65-0.88-1.32-1.27-2.01c-5.27,0.06-10.38-0.33-15.52-1.11
						c-19.24-2.92-32.48-12.68-35.41-26.1c-2.39-10.93,2.5-21.13,7.58-29.66c4.12-6.9,8.64-13.55,13.52-19.92
						c-6.27-32.73,9.03-68.07,36.86-81.21c12.18-5.75,25.88-7.33,37.76-8.35c12.88-1.1,26.55-1.78,39.47,3.06
						c6.81,2.55,12.79,6.41,18.2,10.8c12.22-8.81,25.28-16.3,37.75-23.11c16.28-8.89,33.65-16.17,50.27-9.36
						c10.44,4.28,17.52,13.31,23.22,20.57c2.77,3.53,5.65,7.2,8.48,11.03c12.86,2.58,24.38,8.71,32.71,17.94
						c21.63,23.98,16.42,59.9,2.43,83.11c-0.54,0.9-1.09,1.78-1.66,2.66c3.08,3.18,4.41,7.02,3.71,11.12
						c-1,5.84-6.06,9.18-8.22,10.6c-5.56,3.67-11.3,6.9-17.18,9.77l4.76,4.91c12.04,12.41,15.76,23.53,11.07,33.05
						c-2.52,5.11-6.93,8.26-11.23,11.04c-55.97,36.18-123.49,56.2-190.12,56.39C1862.13,393.71,1861.95,393.71,1861.77,393.71z
						 M1840.67,330.51c-2.69,4.28-5.11,8.56-6.95,13.09c-4.19,10.33-4.73,24.76,3.99,32.02c6.02,5,15.18,5.57,24.56,5.64
						c22.73-0.06,45.58-2.52,68-7.22c-13.83-2.46-26.58-9.03-35.67-20.87c-7.55-9.83-10.9-21.02-11.67-32.27
						c-10.72,2.65-20.77,3.68-30.19,3.12C1848.76,326.31,1844.74,328.49,1840.67,330.51z M1896.64,328.83
						c1.4,5.94,3.89,11.63,7.83,16.77c16.61,21.62,51.55,20.91,75.75,7.72c20.17-10.99,35.46-28.74,41.96-48.69
						c0.32-0.99,0.62-1.99,0.9-2.99c-4.37,3.11-8.72,6.11-12.95,9.02c-18.59,12.8-39.66,27.3-64.46,30.81
						C1929.32,343.77,1910.11,339.74,1896.64,328.83z M2037.17,295.21c-0.68,4.47-1.73,8.91-3.15,13.26
						c-4.68,14.37-13.26,27.7-24.65,38.74c12.54-6.04,24.67-12.82,36.3-20.34c2.95-1.91,5.7-3.82,6.83-6.1
						c2.64-5.34-3.35-13.21-8.84-18.87L2037.17,295.21z M1900.53,315.34c10.23,11.22,28.18,15.94,43.41,13.79
						c19.01-2.69,36.45-13.32,52.14-23.94c-10.88,2.23-21.61,3.83-31.85,5.14c-18.29,2.34-38.48,4.23-59.14,3.2
						C1903.55,314.16,1902.04,314.76,1900.53,315.34z M1829.67,305.19c1.45,0.87,3.18,1.68,5.22,2.47c1.57,0.6,3.17,1.14,4.8,1.6
						c1.53-2.42,2.98-4.84,4.31-7.32C1839.3,303.33,1834.51,304.42,1829.67,305.19z M1856.59,304.66c-0.51,1.04-1.04,2.08-1.6,3.12
						c-0.11,0.21-0.21,0.41-0.33,0.61c1.52-0.94,3.03-1.88,4.54-2.85C1858.33,305.26,1857.46,304.96,1856.59,304.66z
						 M1971.61,275.28c-13.08,9.36-26.73,17.97-40.79,25.71c11.02-0.57,21.72-1.72,31.83-3.01c20.06-2.56,42.08-6.26,63.04-13.82
						c0-0.25,0.01-0.51,0.01-0.76l-20.4-21.03C1994.25,266.89,1983.04,271.37,1971.61,275.28z M1896.66,300.44
						c2.09,0.2,4.18,0.36,6.27,0.49c5.35-2.29,10.88-4.96,16.6-8c4.6-2.44,9.17-4.98,13.68-7.61c-5.55,0.93-11.16,1.61-16.85,1.99
						c-1.97,0.13-3.94,0.22-5.89,0.27c-0.05,0.03-0.11,0.06-0.16,0.1c-4.19,2.4-8.38,4.96-12.54,7.59
						C1897.36,296.98,1896.99,298.7,1896.66,300.44z M1863.87,293.97c1.05,0.33,2.1,0.65,3.17,0.96c2,0.58,4,1.11,6.01,1.6
						c0.53-0.35,1.06-0.7,1.59-1.05c1.71-1.13,3.44-2.27,5.17-3.41c0.07-2.33,0.31-4.69,0.71-7.09c-0.49-0.1-0.98-0.21-1.46-0.31
						C1874.24,288.15,1869.16,291.26,1863.87,293.97z M1788.52,244.64c-2.57,3.69-5.01,7.48-7.32,11.35
						c-3.84,6.45-7.58,13.95-6.12,20.63c2.1,9.64,14.36,14.82,25.11,16.45c3.48,0.53,6.98,0.84,10.48,0.94
						c-0.06-4.44,0.75-9.38,2.44-14.87C1802.25,269.21,1793.81,257.49,1788.52,244.64z M1823.73,287.75
						c-0.42,2.11-0.63,4.04-0.62,5.79c2.55-0.27,5.1-0.64,7.63-1.12C1828.33,290.94,1825.99,289.38,1823.73,287.75z M1827.76,275.26
						c6.04,4.69,12.77,8.84,20.05,12.34c0.92-0.35,1.83-0.71,2.74-1.08c1.17-3.5,2.2-7.07,3.12-10.7
						c-7.39-3.67-14.14-8.15-20.08-13.38C1831.46,266.62,1829.51,270.9,1827.76,275.26z M1904.42,275.17
						c0.9,0.02,1.88,0.02,2.7,0.02c22.76-12.73,51.26-25.18,81.56-29.99l-31.79-32.78c-1.47-0.29-2.95-0.56-4.43-0.81
						c-0.14,0.1-0.27,0.2-0.41,0.3c-8.73,6.47-16.97,13.57-24.68,21.23c-8.14,12.02-15.23,24.74-21.24,38.06
						C1905.57,272.46,1904.99,273.78,1904.42,275.17z M2034.2,257.12c1.79,5.53,2.97,11.3,3.54,17.17
						c4.65-4.16,9.07-8.55,13.1-13.25C2045.33,259.3,2039.78,258.01,2034.2,257.12z M1868.13,268.54c2.66,0.99,5.4,1.87,8.2,2.65
						c10.9-8.86,19.91-19.96,25.86-32.66c4.66-9.97,6.09-18.17,4.36-25.06c-0.5-1.98-1.44-3.96-2.7-5.74
						c-6.47-0.19-12.97-0.31-19.46-0.36c-7.16,14.47-10.24,30.44-13.5,47.34C1870.01,259.3,1869.12,263.92,1868.13,268.54z
						 M1967.83,262.64c-6.74,1.96-13.32,4.24-19.69,6.74c5.96-1.55,11.87-3.35,17.73-5.31
						C1966.53,263.6,1967.18,263.12,1967.83,262.64z M1797.51,232.7c0.39,1.38,0.83,2.75,1.32,4.11
						c3.93,10.9,10.48,20.96,19.09,29.71c1.98-4.58,4.17-9.08,6.56-13.47c-0.37-0.44-0.73-0.89-1.08-1.34
						c-9.51-12.03-12.67-24.97-8.64-35.52c0.5-1.31,1.09-2.57,1.78-3.76C1809.73,218.73,1803.37,225.51,1797.51,232.7z
						 M1839.86,251.31c4.88,4.62,10.47,8.63,16.66,11.98c0.74-3.6,1.44-7.24,2.15-10.93c2.15-11.16,4.35-22.56,7.85-33.61
						C1856.25,228.34,1847.26,239.35,1839.86,251.31z M2017.68,257.24l5.21,5.37c-0.66-2.26-1.45-4.47-2.35-6.62
						C2019.58,256.42,2018.63,256.84,2017.68,257.24z M2039.03,245.32c6.6,1.2,13.17,2.93,19.71,5.25c0.61-0.93,1.2-1.87,1.77-2.82
						c12.07-20.02,15.6-49.93-1.01-68.35c-3.4-3.77-7.59-6.89-12.3-9.3c2.43,4.36,4.58,8.89,6.29,13.63
						c6.69,18.54,5.08,37.62-4.3,51.04C2046.3,238.88,2042.83,242.35,2039.03,245.32z M2010.38,239.54
						c-0.77,1.28-1.58,2.52-2.44,3.72c1.77-0.07,3.54-0.11,5.33-0.13c-0.01-0.01-0.02-0.03-0.03-0.04
						C2012.32,241.86,2011.37,240.68,2010.38,239.54z M1860.41,207.46c-0.31,0.01-0.63,0.01-0.94,0.02
						c-18.75,0.32-29.88,4.74-33.09,13.15c-2.87,7.53,1.56,15.98,4.96,20.9C1839.5,228.96,1849.3,217.46,1860.41,207.46z
						 M2015.6,226.91c2.72,2.68,5.26,5.58,7.62,8.74c0.89,1.19,1.74,2.41,2.55,3.66c5.18-3.13,9.88-6.91,13.22-11.68
						c7.07-10.1,8.12-24.94,2.79-39.68c-2.99-8.28-7.56-15.94-12.72-23.27c-7.99-0.98-16.46-0.38-24.74,1.94
						c-13.87,3.9-27.56,12.11-41.6,25c17.9-7.39,36.87-7.28,47.63,6.61C2016.27,205.89,2018.07,216.46,2015.6,226.91z
						 M1980.98,219.4l16.53,17.04c1.33-1.82,2.51-3.72,3.52-5.71c0,0,0.01-0.01,0.01-0.02
						C1995.02,226.04,1988.23,222.33,1980.98,219.4z M1917.96,208.24c0.25,0.73,0.47,1.46,0.65,2.19c0.97,3.84,1.29,7.85,0.98,12.07
						c3.25-4.63,6.65-9.15,10.2-13.57C1925.77,208.63,1921.82,208.41,1917.96,208.24z M1969.25,202.49
						c12.49,3.25,24.48,8.03,34.95,15.13c-0.01-4.22-1.08-8.38-3.7-11.76C1993.61,196.96,1980.91,198.02,1969.25,202.49z
						 M1873.87,151.79c-4.72,0-9.49,0.34-14.17,0.74c-11.3,0.97-23.19,2.33-33.52,7.2c-19.87,9.38-31.87,32.82-31.17,56.77
						c26.36-29.1,60.76-50.84,98.6-61.71C1887.44,152.51,1880.7,151.79,1873.87,151.79z M1902.8,159.51
						c0.45,3.05-1.43,6.04-4.48,6.89c-24.28,6.79-47.08,18.33-67.05,33.59c7.25-3.12,16.59-4.78,27.98-4.97
						c5.54-0.09,11.09-0.14,16.66-0.14c0.11,0,0.21,0,0.32,0c0.43-0.3,0.87-0.59,1.32-0.88c7.58-12.48,17.51-23.01,28.58-32.16
						C1905.04,161.03,1903.93,160.25,1902.8,159.51z M1909.48,195.45c2.76,0.1,5.52,0.2,8.27,0.31c7.06,0.3,14.43,0.76,21.91,1.55
						c0.41-0.45,0.82-0.91,1.24-1.36l-17.94-18.5c-2.33-2.4-4.75-4.9-7.27-7.33c-7.05,5.69-13.6,11.92-19.29,18.83
						C1901.33,189.73,1905.81,192.13,1909.48,195.45z M1925.76,162.56c2.12,2.09,4.16,4.19,6.14,6.23l17.64,18.19
						c17.15-16.84,34.03-27.45,51.42-32.34c6.13-1.72,12.31-2.67,18.38-2.87c-0.52-0.67-1.04-1.33-1.57-1.99
						c-5.04-6.43-10.75-13.71-18.14-16.74c-11.82-4.84-26.01,1.35-39.59,8.77C1948.7,148,1936.87,154.75,1925.76,162.56z"/>
				</g>
			</g>
			<g>
				<g>
					<path class="st4" d="M402.45,2362.37c-43.05,0-79.98-7.75-110.07-23.13c-46.75-23.9-75.8-71.99-75.8-125.5v-137.77
						c-40.23-50.44-37.76-149.62-37.63-153.98c0.16-4.43,15.51-433.43,15.23-514.38c-0.26-76.75,73.4-114.48,112.38-123.71
						c5.45-1.28,11.19-0.06,15.62,3.34l145.7,111.74c4.35,3.33,7,8.41,7.27,13.88l40.53,840.35c0.5,10.27-7.43,19-17.7,19.5
						c-10.32,0.64-19-7.43-19.5-17.7l-40.11-831.73l-131.36-100.74c-21.17,7.01-75.76,30.38-75.58,84.94
						c0.28,81.68-14.62,498.05-15.26,515.73c-0.76,26.53,3.6,102.42,32.56,133.03c3.27,3.46,5.09,8.04,5.09,12.8v144.7
						c0,39.46,21.26,74.84,55.5,92.34c30.84,15.78,71.58,21.8,121.12,17.92c10.21-0.8,19.21,6.86,20.02,17.11
						s-6.86,19.21-17.11,20.02C422.74,2361.96,412.43,2362.37,402.45,2362.37z"/>
				</g>
				<g>
					<path class="st3" d="M431.91,2342.56c-59.98,4.7-101.87-4.98-131.05-19.9c-40.67-20.79-65.65-63.25-65.65-108.92v-144.7
						c-40.74-43.07-37.63-146.5-37.63-146.5s15.52-432.75,15.24-515c-0.28-82.25,98.05-105.53,98.05-105.53l145.7,111.74
						l40.53,840.35L431.91,2342.56z"/>
				</g>
				<g>
					<path class="st3" d="M310.86,1302.02c0,0-98.32,23.28-98.05,105.53c0.28,82.25-15.24,515-15.24,515s-3.1,103.43,37.63,146.5
						v144.7c0,45.67,24.98,88.13,65.65,108.92c29.18,14.92,71.07,24.61,131.05,19.9L310.86,1302.02z"/>
				</g>
				<g>
					<path class="st4" d="M402.45,2362.37c-43.05,0-79.98-7.75-110.07-23.13c-46.75-23.9-75.8-71.99-75.8-125.5v-137.77
						c-40.23-50.44-37.76-149.62-37.63-153.98c0.16-4.43,15.51-433.43,15.23-514.38c-0.26-76.75,73.4-114.48,112.38-123.71
						c10.03-2.38,20.05,3.82,22.41,13.83c2.37,9.99-3.8,20.01-13.78,22.4l0,0c-3.43,0.83-83.98,21.1-83.76,87.35
						c0.28,81.68-14.62,498.05-15.26,515.73c-0.76,26.53,3.6,102.42,32.56,133.03c3.27,3.46,5.09,8.04,5.09,12.8v144.7
						c0,39.46,21.26,74.84,55.5,92.34c30.85,15.78,71.58,21.8,121.12,17.92c10.21-0.8,19.21,6.86,20.02,17.11
						s-6.86,19.21-17.11,20.02C422.74,2361.96,412.43,2362.37,402.45,2362.37z"/>
				</g>
				<g>
					<path class="st4" d="M235.2,2087.67c-8.19,0-15.7-5.44-17.96-13.73c-2.71-9.92,3.14-20.16,13.07-22.87
						c12.73-3.48,100.46-2.28,171.8-0.65c10.28,0.23,18.43,8.76,18.19,19.04c-0.23,10.28-8.97,18.48-19.04,18.19
						c-71.03-1.61-150.63-2.23-161.72-0.51C238.09,2087.5,236.63,2087.67,235.2,2087.67z M240.11,2087.01
						c-0.12,0.03-0.24,0.06-0.37,0.09C239.88,2087.07,240,2087.04,240.11,2087.01z"/>
				</g>
				<g>
					<path class="st3" d="M1654.21,1810.79c-9.4,59.97-38.46,165-128.22,257.88c0,0-1.68,173.8-157.59,198.61
						c0,0,0.37,51.63-0.14,121.84c-0.84,103.54-3.72,247.4-12.99,325.11c-15.5,130.36-31.01,187.81-31.01,187.81
						s38.6,14.11,69.7,46.46c29.89,31.1,52.84,79.05,27.61,147.54c-7.87,21.37-28.17,35.66-50.93,35.66h-364.91
						c-29.8,0-53.91-24.16-53.91-53.91v-343.36l-85.38-319.71l-0.19,0.42l-120.86,283.58l9.5,377.67
						c0.75,30.31-23.6,55.31-53.91,55.31H269.24c-26.12,0-48.84-18.58-53.35-44.32c-9.87-56.24,4.52-108.43,34.22-145.77
						c26.63-33.47,65.6-54.98,110.43-56.66l7.68-263.6c1.07-36.31,4.66-72.49,10.71-108.29l43.67-258.95
						c0,0-45.02-255.27-15.5-413.56c29.47-158.29,286.7-315.05,286.7-315.05c87.43,28.68,169.89-27.38,250.24-118.72l258.3-22.67
						c63.04-5.54,126.31,8.85,180.31,41.76c22.11,13.45,46.56,29.66,71.6,48.7h0.05v0.05c0.09,0.05,0.28,0.19,0.51,0.37
						c73.98,56.19,152.75,136.5,190.51,241.07C1656.21,1746.35,1659.19,1778.94,1654.21,1810.79z"/>
				</g>
				<g>
					<path class="st4" d="M1370.63,3150.32h-364.9c-40,0-72.55-32.55-72.55-72.56v-340.91l-70.79-265.13l-98.28,230.57l9.38,373.64
						c0.49,19.72-6.82,38.36-20.59,52.48c-13.77,14.12-32.22,21.9-51.94,21.9H269.22c-35.44,0-65.58-25.11-71.65-59.71
						c-10.41-59.31,3.75-118.23,38.84-161.65c27.37-33.87,64.53-55.15,105.99-61.06l7.23-247.12c1.08-37.03,4.76-74.32,10.92-110.84
						l43.16-255.8c-5.35-31.43-43.25-265.01-14.93-417.02c30.65-164.57,284.54-320.95,295.33-327.53c4.66-2.84,10.33-3.48,15.5-1.79
						c69.21,22.71,142.44-13.3,230.45-113.33c3.16-3.59,7.58-5.83,12.35-6.25l258.3-22.69c66.91-5.87,134.95,9.9,191.64,44.42
						c94.91,57.79,218.87,156.71,270.48,299.78c11.89,32.96,15.27,68.9,9.79,103.92c-8.92,56.99-37.46,166.09-128.41,262.89
						c-2.64,34.55-21.7,174.61-157.08,206.06c0.27,65.77,0.36,318.79-13.34,433.83c-11.13,93.54-22.22,149.73-27.82,174.84
						c23.86,11.79,69.34,39.54,91.87,88.2c17.19,37.14,17.61,78.52,1.23,123C1428.52,3131.1,1401.03,3150.32,1370.63,3150.32z
						 M866.44,2396.1c0.44,0,0.88,0.01,1.33,0.05c7.92,0.56,14.62,6.09,16.67,13.77l85.36,319.69c0.42,1.57,0.63,3.18,0.63,4.8
						v343.35c0,19.47,15.84,35.31,35.31,35.31h364.9c14.85,0,28.31-9.42,33.47-23.46c12.83-34.86,12.81-66.65-0.08-94.48
						c-24.29-52.47-85.56-75.41-86.18-75.63c-9.07-3.33-14.1-13.03-11.58-22.35c0.15-0.56,15.41-58.11,30.53-185.12
						c15.2-127.71,13.02-441.45,12.99-444.6c-0.07-9.21,6.6-17.08,15.69-18.53c138.76-22.1,141.83-173.98,141.89-180.43
						c0.05-4.77,1.92-9.34,5.23-12.76c87.63-90.65,114.8-194.17,123.2-247.81c4.52-28.86,1.74-58.43-8.03-85.52
						c-47.92-132.86-165.02-225.93-254.81-280.61c-49.96-30.42-109.98-44.33-169.01-39.13l-250.91,22.04
						c-60.76,68.03-151.22,149.82-256.48,121.09c-40.58,26.06-246.18,163.97-271.18,298.17c-28.54,153.21,15.11,404.42,15.55,406.94
						c0.37,2.09,0.38,4.23,0.02,6.33l-43.69,258.93c-5.88,34.84-9.38,70.42-10.42,105.74l-7.71,263.62
						c-0.28,9.79-8.12,17.7-17.91,18.06c-37.51,1.42-71.56,18.75-95.85,48.82c-28.33,35.05-39.67,83.09-31.13,131.8
						c2.94,16.75,17.65,28.91,34.97,28.91h431.73c9.6,0,18.58-3.78,25.28-10.66c6.7-6.87,10.26-15.94,10.02-25.54l-9.48-377.69
						c-0.06-2.67,0.44-5.32,1.48-7.77l121.05-284C852.25,2400.52,859.02,2396.1,866.44,2396.1z"/>
				</g>
				<g>
					<path class="st3" d="M1262.17,1847.51c3.1-0.52,47.56-0.34,76.88-0.17c14.27,0.08,25.89,11.45,26.32,25.71l3.03,100.57
						c0.46,15.28-12.03,27.78-27.31,27.3c-32.99-1.04-83.07-2.12-82.02,1.01L1262.17,1847.51z"/>
				</g>
				<g>
					<path class="st4" d="M1259.06,2020.55c-7.8,0-15.07-4.94-17.67-12.75c-1.92-5.78-0.84-12.41,2.79-17.29
						c6.64-8.91,8.26-11.03,97.49-8.21c2.99,0.2,4.9-1.39,5.8-2.29c0.9-0.9,2.4-2.85,2.31-5.83l-3.03-100.57
						c-0.13-4.27-3.56-7.63-7.81-7.65c-61.18-0.36-72.55-0.06-74.65,0.05c-9.8,1.14-18.85-5.61-20.49-15.44
						c-1.69-10.15,5.16-19.74,15.31-21.43c2.42-0.41,5.17-0.86,80.04-0.42c24.4,0.14,44.09,19.37,44.82,43.77l3.03,100.57
						c0.38,12.4-4.44,24.55-13.21,33.31c-8.77,8.75-20.84,13.59-33.3,13.16c-51.89-1.64-68.85-0.95-73.97-0.54
						c-0.51,0.22-1.04,0.42-1.58,0.61C1263,2020.24,1261.02,2020.55,1259.06,2020.55z M1265.23,1865.87
						c-0.25,0.04-0.51,0.08-0.76,0.11C1264.8,1865.95,1265.05,1865.9,1265.23,1865.87z"/>
				</g>
				<g>
					<path class="st3" d="M768.85,1720.11l418.21-10.5c55.64-1.4,101.49,43.32,101.49,98.98v220.03c0,54.68-44.33,99.01-99.01,99.01
						h-413.9c-53.89,0-97.88-43.09-98.99-96.97l-4.32-209.53C671.23,1766.63,714.36,1721.47,768.85,1720.11z"/>
				</g>
				<g>
					<path class="st4" d="M1189.55,2146.25h-413.9c-63.54,0-116.29-51.68-117.6-115.21l-4.32-209.53
						c-1.33-64.56,50.11-118.39,114.65-120.02l418.21-10.5c31.94-0.8,62.19,11.05,85.08,33.38c22.9,22.33,35.5,52.24,35.5,84.21
						v220.03C1307.18,2093.48,1254.41,2146.25,1189.55,2146.25z M769.32,1738.73c-44.12,1.1-79.26,37.9-78.35,82.01l4.32,209.53
						c0.89,43.41,36.94,78.73,80.37,78.73h413.9c44.33,0,80.39-36.06,80.39-80.39v-220.03c0-21.86-8.61-42.29-24.26-57.55
						c-15.64-15.26-36.3-23.46-58.13-22.81L769.32,1738.73L769.32,1738.73z M768.85,1720.11h0.05H768.85z"/>
				</g>
				<g>
					<path class="st4" d="M1079.05,2146.25c-10.28,0-18.62-8.34-18.62-18.62v-158.68l-113.74-69.05c-5.56-3.37-8.96-9.41-8.96-15.92
						V1715.4c0-10.28,8.34-18.62,18.62-18.62s18.62,8.34,18.62,18.62v158.1l113.74,69.05c5.56,3.37,8.96,9.41,8.96,15.92v169.16
						C1097.67,2137.91,1089.33,2146.25,1079.05,2146.25z"/>
				</g>
				<g>
					<path class="st4" d="M874.19,2146.25c-61.5,0-110.97-48.16-112.63-109.63l-5.96-221.48c-1.64-60.8,44.62-111.51,105.31-115.47
						l12.08-0.79c10.24-0.62,19.13,7.11,19.79,17.37c0.67,10.26-7.11,19.13-17.37,19.79l-12.08,0.79
						c-40.63,2.65-71.59,36.6-70.49,77.29l5.96,221.48c1.11,41.16,34.22,73.39,75.4,73.39c10.28,0,18.62,8.34,18.62,18.62
						S884.47,2146.25,874.19,2146.25z"/>
				</g>
				<g>
					<ellipse class="st6" cx="1173.72" cy="1856.28" rx="48.11" ry="62.32"/>
				</g>
				<g>
					<path class="st4" d="M1173.72,1937.22c-36.8,0-66.73-36.31-66.73-80.94c0-44.63,29.94-80.94,66.73-80.94
						s66.73,36.31,66.73,80.94C1240.45,1900.91,1210.51,1937.22,1173.72,1937.22z M1173.72,1812.59c-15.99,0-29.49,20.01-29.49,43.7
						c0,23.68,13.5,43.69,29.49,43.69s29.49-20.01,29.49-43.69C1203.2,1832.6,1189.7,1812.59,1173.72,1812.59z"/>
				</g>
				<g>
					<path class="st3" d="M382.24,1890.96l-3.13,77.5c-1.03,25.39,19.76,46.29,45.15,45.41l228.47-7.93
						c21.18-0.74,38.13-17.84,38.67-39.03l1.35-53.48c0.57-22.52-17.53-41.08-40.06-41.08H409.8L382.24,1890.96z"/>
				</g>
				<g>
					<path class="st4" d="M422.77,2032.51c-16.52,0-32.52-6.63-44.2-18.37c-12.18-12.25-18.76-29.17-18.07-46.44l3.13-77.5
						c0.42-10.27,9.27-18.26,19.36-17.86c3.03,0.12,5.85,0.96,8.33,2.34c-0.1-0.77-0.15-1.56-0.15-2.36
						c0-10.28,8.34-18.62,18.62-18.62h242.9c15.96,0,30.89,6.29,42.03,17.72c11.14,11.43,17.05,26.5,16.65,42.46l-1.35,53.48
						c-0.79,30.99-25.66,56.1-56.64,57.18l-228.48,7.93C424.19,2032.5,423.48,2032.51,422.77,2032.51z M400.72,1888.6
						c0.13,1.02,0.18,2.06,0.13,3.11l-3.13,77.5c-0.28,7.04,2.29,13.68,7.27,18.67c4.97,5,11.61,7.57,18.63,7.37l228.48-7.93
						c11.32-0.39,20.41-9.57,20.69-20.89l1.35-53.48c0.15-5.83-2.01-11.34-6.08-15.51c-4.07-4.17-9.53-6.47-15.36-6.47h-242.9
						C406.5,1890.96,403.4,1890.11,400.72,1888.6z"/>
				</g>
				<g>
					<path class="st4" d="M1321.1,2920.37c-64.51-14.16-133.84-14.69-197.26,5.44c-7.99,2.2-19.57,7.31-27.33,10.34
						c4.38-2.67,14.73-8.85,18.94-11.35c6.52-3.17,13.37-6.81,19.91-9.82c60.06-26.01,126.78-35.47,192.04-31.32
						C1353.84,2887.22,1347.33,2925.82,1321.1,2920.37L1321.1,2920.37z"/>
				</g>
				<g>
					<path class="st4" d="M351.39,2868.72c4.17-1.96,8.48-2.75,13.06-2.68c58.81,4.33,116.71,29.78,159.41,70.12
						c-42.47-26.25-93.08-37.83-142.55-35.74c-5.33,0.34-10.61,0.61-15.53,2.05c0.99,0.03,2.82-0.56,3.87-1.29
						C347.85,2912.59,330.3,2881.45,351.39,2868.72L351.39,2868.72z"/>
				</g>
				<g>
					<path class="st4" d="M598.7,2771.23c-143.86,0-237.28-55.88-242.38-59c-8.77-5.37-11.53-16.84-6.16-25.61
						c5.37-8.76,16.81-11.52,25.58-6.17c1.61,0.98,154.48,91.63,365.6,34.09c9.94-2.69,20.16,3.15,22.87,13.07
						c2.71,9.93-3.15,20.16-13.07,22.87C696,2765.49,644.75,2771.23,598.7,2771.23z"/>
				</g>
				<g>
					<path class="st4" d="M1150.44,2787.79c-106.07,0-197.04-22.88-203.27-24.48c-9.96-2.56-15.95-12.71-13.39-22.67
						c2.55-9.96,12.71-15.99,22.67-13.41c2.41,0.62,242.62,60.89,388.5-16.12c9.09-4.8,20.35-1.32,25.17,7.77
						c4.8,9.1,1.32,20.36-7.77,25.17C1298.81,2777.59,1221.25,2787.79,1150.44,2787.79z"/>
				</g>
				<g>
					<path class="st4" d="M600.68,2334.41c18.79,7.93,39.29,17.14,58.82,23.18c3.58,1.29,11.39,3.97,14.77,5.18
						c14,3.44,31.33,8.96,45.4,11.43c7.05,1.37,23.71,4.56,30.44,5.87c30.53,4.37,61.46,6.16,91.99,7.35
						c40.66,2.97,81.98-1.62,122.47-5.06c68.88-6.78,136.35-25.7,200.2-52.39c23.07-9.51,53.79-24.62,76.08-36.3
						c-68.61,50.39-146.37,90.84-228.8,112.99c-19.97,5.96-42.95,10.66-63.42,14.51c-20.63,3.28-44.09,4.84-65.09,4.49
						c-6.17-0.06-15.68,0.52-21.77,0.05c-21.17-0.44-44.37-1.94-64.97-6.63c-12.41-1.8-30.06-7.02-42.3-10.12
						c0,0-10.45-2.84-10.45-2.84l-10.25-3.58l-20.42-7.15c-13.95-4.82-30.82-13.46-44.45-19.28c-8.97-4.79-23.91-13.15-32.84-18.09
						C624.03,2350.43,612.32,2342.33,600.68,2334.41L600.68,2334.41z"/>
				</g>
				<g>
					<path class="st4" d="M1368.43,2285.92c-0.57,0-1.15-0.02-1.73-0.08c-42.01-3.88-92.1-76.08-103.09-148.58
						c-11.07-73.12,19.95-130.53,85.11-157.52c9.52-3.92,20.4,0.59,24.34,10.08c3.94,9.5-0.58,20.4-10.08,24.34
						c-62.49,25.88-68.5,78.2-62.54,117.53c9.31,61.41,51.88,115.43,69.68,117.08c10.24,0.95,17.78,10.01,16.84,20.25
						C1386.06,2278.67,1377.95,2285.92,1368.43,2285.92z"/>
				</g>
				<g>
					<path class="st4" d="M1341.41,1849.4l31.1-78.22l-1.32,7.11c4.89-38.19,12.97-75.25,27.53-110.75
						c4.98-11.57,10.72-22.82,17.86-32.92c-16.07,45.96-13.41,95.89-8.15,143.2c0.03,2.48-0.45,4.94-1.31,7.12l-31.1,78.22
						C1366.26,1885.72,1333.01,1872.6,1341.41,1849.4L1341.41,1849.4z"/>
				</g>
				<g>
					<polygon class="st4" points="1376.76,1956.97 1424.73,2001.92 1360.04,1990.25 1376.76,1956.97 					"/>
				</g>
				<g>
					<path class="st4" d="M1528.75,2084.4c-0.05,0-0.11,0-0.17,0c-10.28-0.09-18.55-8.5-18.46-18.78
						c1.46-170.62-133.2-242.73-138.93-245.71c-9.11-4.75-12.68-15.98-7.95-25.09c4.73-9.12,15.9-12.71,25.05-8
						c6.56,3.38,160.75,85.06,159.08,279.13C1547.28,2076.17,1538.96,2084.4,1528.75,2084.4z"/>
				</g>
				<g>
					<path class="st4" d="M1621.44,1867.14c-97.88-136.36-220.22-115.26-221.45-115.01l-6.86-36.61
						c5.95-1.1,147.02-25.51,258.55,129.9L1621.44,1867.14z"/>
				</g>
				<g>
					<path class="st4" d="M1248.98,1492.9c59.1,106.34,97.13,223.83,118.59,343.47c0,0-36.98,4.44-36.98,4.44
						c-4.27-59.36-12.95-118.5-26.42-176.61C1290.52,1605.79,1273.06,1548,1248.98,1492.9L1248.98,1492.9z"/>
				</g>
				<g>
					<g>
						<path class="st4" d="M1477.06,898.74c-12.6,449.83-716.15,750.9-1134.59,342.89L232.28,1034.9
							C122.31,447.7,920.76,12.39,1373.53,510.45C1373.53,510.45,1501.07,700.32,1477.06,898.74z"/>
					</g>
					<g>
						<path class="st3" d="M1471.54,957.26c222.06-66.5-12.59-494.78-106.83-460.21"/>
					</g>
					<g>
						<ellipse class="st3" cx="795.05" cy="865.93" rx="682.83" ry="668.87"/>
					</g>
					<g class="st9">
						<path class="st4" d="M1477.9,865.78v0.14c0,369.43-305.74,668.88-682.85,668.88s-682.85-299.45-682.85-668.88
							c0-71.42,11.41-140.18,32.59-204.71c0.09,369.38,305.78,668.74,682.85,668.74C1131.85,1329.95,1389.63,1135.06,1477.9,865.78z
							"/>
					</g>
					<g>
						<path class="st4" d="M1477.06,898.74c-12.6,449.83-716.15,750.9-1134.59,342.89L232.28,1034.9
							C122.31,447.7,920.76,12.39,1373.53,510.45C1373.53,510.45,1501.07,700.32,1477.06,898.74z"/>
					</g>
					<g class="st31">
						<path class="st33" d="M1477.06,898.74c-12.62,449.83-716.14,750.91-1134.59,342.89l-110.2-206.71
							c-9.17-48.88-12.01-96.75-9.26-143.07c114.25,212.76,342.15,357.84,604.63,357.84c302.62,0,559.29-192.84,648.86-459.98
							C1480.74,824.99,1481.53,861.73,1477.06,898.74z"/>
					</g>
					<g>
						<path class="st4" d="M1471.54,975.89c-8.02,0-15.42-5.21-17.84-13.29c-2.95-9.85,2.65-20.23,12.5-23.18
							c41.75-12.5,66.49-39.18,75.63-81.55c22.51-104.4-59.51-265.49-125.8-323.13c-18.56-16.15-35.35-23.7-44.9-20.21
							c-9.67,3.54-20.36-1.41-23.9-11.07c-3.54-9.66,1.42-20.35,11.07-23.9c16.37-6.01,43.93-6.2,82.18,27.07
							c73.89,64.26,164.29,236.1,137.76,359.09c-11.92,55.27-46.97,93.09-101.36,109.38
							C1475.1,975.63,1473.31,975.89,1471.54,975.89z"/>
					</g>
					<g>
						<path class="st4" d="M154.43,961.99c-7.45,0-13.64-5.89-13.95-13.4c-9.51-233.96,129.72-490.73,338.57-624.41
							c99.78-63.86,210.29-98.19,328.48-102.03c132.08-4.31,270.5,30.06,411.39,102.1c6.87,3.51,9.59,11.93,6.08,18.79
							c-3.51,6.88-11.93,9.58-18.79,6.08c-328.2-167.81-568.38-93.4-712.09-1.41C293.21,476.31,159.27,722.93,168.4,947.46
							c0.31,7.71-5.68,14.21-13.39,14.52C154.82,961.99,154.62,961.99,154.43,961.99z"/>
					</g>
					<g class="st13">
						<path class="st3" d="M586.83,526.57c298.96-31.24,548.65,32.65,724.29,239.55c9.35,11.02,27.2,1.5,23.41-12.44
							c-98.98-364.34-425.34-443.3-755.96-252.34C565.93,508.65,572.31,528.09,586.83,526.57z"/>
					</g>
					<g class="st13">
						<path class="st3" d="M653.65,1261.06c-29.69,36.06-105.24,22.91-168.75-29.38s-90.92-123.91-61.23-159.97
							s83.54,3.45,147.05,55.74C634.22,1179.74,683.34,1225,653.65,1261.06z"/>
					</g>
					<g class="st13">
						<ellipse class="st3" cx="375.95" cy="926.03" rx="67.51" ry="84.58"/>
					</g>
					<g>
						<path class="st4" d="M795.05,1553.42c-386.78,0-701.46-308.41-701.46-687.49s314.67-687.49,701.46-687.49
							s701.46,308.41,701.46,687.49S1181.84,1553.42,795.05,1553.42z M795.05,215.69c-366.25,0-664.21,291.7-664.21,650.24
							s297.96,650.24,664.21,650.24s664.21-291.7,664.21-650.24S1161.3,215.69,795.05,215.69z"/>
					</g>
					<g>
						<path class="st3" d="M319.52,1352.44c-32.45,25.93-78.31,26.68-113.23,4.14c-41.34-26.68-86.13-76.73-121.79-132.5
							c-33.1-51.77-58.38-108.48-65.78-156.01c-1.91-54.75,23.33-117.04,85.11-124.12c33.61-3.82,66.67,11.03,87.85,37.43
							c24.67,30.68,64.99,84.13,99.31,145.02c19.69,34.96,37.39,72.35,48.98,109.27C339.96,1235.67,375.3,1307.93,319.52,1352.44z"
							/>
					</g>
					<g>
						<path class="st4" d="M260.75,1391.43c-22.2,0-44.67-6.36-64.56-19.19c-86.64-55.9-180-199.51-195.87-301.3
							c-0.12-0.74-0.19-1.48-0.21-2.23c-2.18-63.17,28.69-134.94,101.62-143.25c38.96-4.45,78.99,12.51,104.48,44.24
							c42.62,53.04,118.75,157.04,151.12,259.11c14.23,30.27,26.4,96.22-26.17,138.18C310.82,1383.23,285.95,1391.43,260.75,1391.43
							z M37.3,1066.32c14.8,91.46,101.53,224.58,179.09,274.63l0,0c29.01,18.72,65.79,17.49,91.54-3.06
							c43.18-34.48,16.44-91.67,15.28-94.09c-0.39-0.8-0.75-1.7-1.01-2.55c-30.31-96.64-103.87-197-145.02-248.21
							c-17.56-21.85-44.81-33.57-71.23-30.56C49.72,968.87,36.36,1030.22,37.3,1066.32z"/>
					</g>
					<g>
						<path class="st4" d="M236.06,1386.85c-3.09,0-6.44-0.29-10.08-0.93c-10.13-1.79-16.89-11.45-15.1-21.58
							c1.79-10.13,11.46-16.89,21.58-15.1c1.38,0.24,2.42,0.33,3.18,0.35c1.04-6.17,1.33-32.7-40.79-113.04
							c-29.72-56.69-66.92-113.65-88.3-140.62c-43.6-54.98-79.51-50.45-81.04-50.22c-10.09,1.96-19.67-4.66-21.63-14.76
							c-1.96-10.1,4.83-19.91,14.93-21.87c2.32-0.44,58.19-10.33,116.91,63.71c20.94,26.4,166.84,238.13,131.54,297.36
							C263.3,1376.81,254.29,1386.85,236.06,1386.85z"/>
					</g>
					<g class="st9">
						<path class="st4" d="M319.52,1352.44c-32.45,25.93-78.31,26.68-113.23,4.14c-41.34-26.68-86.13-76.73-121.79-132.5
							c89.34,5.77,181.62-30.96,206.48-97.68c19.69,34.96,37.39,72.35,48.98,109.27C339.96,1235.67,375.3,1307.93,319.52,1352.44z"
							/>
					</g>
				</g>
				<g>
					<g>
						<path class="st3" d="M960.33,1465.76c-44.23,86.13-41.11,96.98-41.11,96.98c7.36,108.24-78.77,217.65-225.43,199.03
							c-111.69,93.53-245.82,143.91-354.48,139.62c-132.5-5.17-228.55-131.85-192.75-259.55c4.1-14.62,9.73-29.24,16.9-43.86
							c33.89-69.51,102.42-139.44,206.76-209.83c0,0,90.79,82.64,237.44,104.75c-2.33-148.98,70.44-163.46,122.21-52.38
							c0,0,38.04,51.58,86.13,18.99c28.4-19.23,58.38-49.54,78.22-71.14c6.52-7.12,14.76-11.64,23.42-13.59
							c18.2-4.19,38.32,2.84,48.37,20.44C974.95,1410.87,976.9,1433.45,960.33,1465.76z"/>
					</g>
					<g>
						<path class="st4" d="M352.49,1920.28c-4.66,0-9.28-0.09-13.89-0.27c-70.15-2.74-134.09-36.88-175.42-93.64
							c-40.23-55.26-52.84-124.35-34.58-189.55c24.79-88.49,102.58-177.35,231.2-264.12c7.13-4.8,16.61-4.11,22.95,1.67
							c0.81,0.73,79.95,71.25,206.51,96.41c2.65-69.11,23.33-112.63,58.03-120.6c34.62-7.95,70.5,21.37,98.55,80.56
							c6.48,8.07,30.2,33.35,59.71,13.37c26.77-18.14,55.54-47.17,74.96-68.33c13.83-15.07,34.26-22.68,54.67-20.42
							c20.01,2.24,37.14,13.4,46.99,30.62c14,24.47,12.22,54.16-5.28,88.25c-33.37,64.99-38.36,84.61-39.05,88.15
							c3.89,61.27-19.98,122.53-63.96,164.02c-44.61,42.09-106.22,61.37-174.31,54.74C592.17,1869.02,464.01,1920.28,352.49,1920.28
							z M369.13,1411.45c-114.2,79.07-183.03,158.24-204.65,235.42c-15.17,54.15-4.67,111.58,28.82,157.57
							c34.58,47.5,88.07,76.05,146.76,78.35c106.1,4.17,237.16-47.7,341.78-135.31c3.98-3.33,9.19-4.83,14.3-4.2
							c76.93,9.8,125.21-18.52,152.19-43.96c35.87-33.84,55.39-83.84,52.38-133.98c-1.17-7.4,1.2-26.59,43.06-108.11
							c11.38-22.17,13.43-39.91,6.09-52.75c-3.89-6.79-10.74-11.2-18.81-12.1c-8.57-0.96-17.27,2.24-23.09,8.58
							c-20.76,22.62-51.75,53.83-81.51,73.99c-49.79,33.73-94.75-0.55-111.57-23.38c-0.73-0.99-1.37-2.06-1.89-3.18
							c-21.72-46.59-44.95-64.76-57.35-61.91c-10.69,2.46-30.59,27.8-29.37,106.12c0.09,5.47-2.24,10.71-6.36,14.31
							s-9.6,5.22-15.03,4.39C482.72,1492.89,398.56,1434.63,369.13,1411.45z M937.74,1563L937.74,1563L937.74,1563z M937.12,1557.65
							c0.13,0.46,0.24,0.92,0.34,1.39C937.37,1558.61,937.26,1558.14,937.12,1557.65z M937.11,1557.62c0,0.01,0,0.02,0,0.03
							C937.12,1557.64,937.11,1557.63,937.11,1557.62z"/>
					</g>
					<g>
						<path class="st4" d="M339.95,1603.48c-8.46,0-16.12-5.81-18.12-14.39c-2.34-10.02,3.89-20.03,13.9-22.37
							c136.07-31.75,262.84-90.13,264.1-90.71c9.34-4.33,20.41-0.26,24.73,9.07c4.33,9.33,0.27,20.4-9.06,24.72
							c-5.3,2.46-131.38,60.54-271.3,93.19C342.77,1603.32,341.35,1603.48,339.95,1603.48z"/>
					</g>
					<g>
						<path class="st4" d="M623.58,1490.18l5.42,126.87l-41.89-119.32C578.39,1469.97,620.57,1461.24,623.58,1490.18L623.58,1490.18
							z"/>
					</g>
					<g>
						<polygon class="st4" points="679.66,1773.89 646.85,1707.06 707.92,1749.64 679.66,1773.89 						"/>
					</g>
					<g>
						<path class="st4" d="M526.45,1880.8c-40.35,0-90.84-36-125.12-90c-47.94-75.52-50.41-160.91-6.77-234.27
							c5.25-8.84,16.68-11.74,25.53-6.49c8.84,5.26,11.74,16.68,6.48,25.52c-51.41,86.44-12.79,165.36,6.21,195.28
							c30.67,48.32,73.11,74.78,96.32,72.59c10.22-0.97,19.34,6.49,20.34,16.73c1,10.23-6.49,19.34-16.73,20.34
							C530.64,1880.7,528.55,1880.8,526.45,1880.8z"/>
					</g>
					<g class="st9">
						<path class="st4" d="M358.34,1580.39l177.57-57.49c0,0,37.82-42.12,26.85-38.97c-10.97,3.15-106.2-34.09-106.2-34.09
							C445.55,1499.79,410,1542.47,358.34,1580.39z"/>
					</g>
					<g class="st9">
						<path class="st4" d="M960.33,1465.76c-44.23,86.13-41.11,96.98-41.11,96.98c7.36,108.24-78.77,217.65-225.43,199.03
							c-111.69,93.53-245.82,143.91-354.48,139.62c-132.5-5.17-228.55-131.85-192.75-259.55c4.1-14.62,9.73-29.24,16.9-43.86
							c-2.37,42.69,5.77,148.89,145.07,154.48c174.59,6.98,320.45-100.1,320.45-100.1l-5.87-67.51c0,0,131.9,119.37,226.41-29.33
							c94.51-148.75,107.31-140.6,73.56-173.19c-2.56-2.47-4.33-4.98-5.45-7.54c18.2-4.19,38.32,2.84,48.37,20.44
							C974.95,1410.87,976.9,1433.45,960.33,1465.76z"/>
					</g>
				</g>
				<g class="st9">
					<path class="st4" d="M915.08,1617.05c216.66-25.15,351.42-93.64,355.74-231.15l-28.82-2.98c0,0-103.08,67.93-162.95,91.46
						c-59.87,23.53-144.36,51.1-144.36,51.1L915.08,1617.05z"/>
				</g>
				<g class="st9">
					<path class="st4" d="M478.47,1874.66c0,0-41.06,71.72,57.45,68.45s150.89,0,150.89,0l87.37-41.46l5.54,117.45
						c280.77,43.27,482.16,10.86,500.31-196.22l8.53,101.65l79.86-3.03l-2.46,71.87l-77.4,3.56l-11.95,78.87l3.42,76.45
						c0,0-36.87,44.81-111.36,45.97c-74.49,1.16-359.65,8.15-359.65,8.15s-126.48,12.8-162.17-121.05l-12.42-34.92l-217.65,6.98
						l-18.93-43.51l-18.63-40.28l11.95-71.96L478.47,1874.66z"/>
				</g>
				<g class="st9">
					<path class="st4" d="M665.38,1784.28c0,0-118.63,75.5-115.53,77.9c3.1,2.4,115.53,5.5,115.53,5.5l4.94-29.1L665.38,1784.28z"/>
				</g>
				<g class="st9">
					<path class="st4" d="M188.65,1954.98c0,0,109.8,65.57,177.3,13.58l28.71,38.45l5.99,60.48H282.93l-64.4-22.89L188.65,1954.98z"
						/>
				</g>
				<g class="st9">
					<path class="st4" d="M235.21,2238.58c0,0,134.19,45,165.45-93.11c0,0,20.19,98.32,21.07,103.48
						c0.88,5.16-14.25,94.81-14.25,94.81s-43.07,3.46-46.17,3.46s-86.82-42.97-86.82-42.97L235.21,2238.58z"/>
				</g>
				<g class="st9">
					<path class="st4" d="M1267.3,1532.1c0,0,79.31,31.54,143.4,114.89c0,0-19.6,64.14-14.13,103.72
						c5.47,39.57-37.85,78.56-37.85,78.56C1324.91,1707.43,1289.19,1572.42,1267.3,1532.1z"/>
				</g>
				<g>
					<path class="st4" d="M1454.3,1474.6c-0.05-0.05-0.05-0.05-0.05-0.05h0.05V1474.6z"/>
				</g>
				<g class="st9">
					<path class="st4" d="M1654.21,1810.79c-9.4,59.97-38.46,165-128.22,257.88c0,0-1.68,173.8-157.59,198.61
						c0,0,0.37,51.63-0.14,121.84c-113.79-87.2-87.01-296.24-84.36-288.65c57.13,164.81,241.35-89.02,193.16-206.76
						c153.08-272.08-11.36-409.98-22.25-418.73c73.98,56.19,152.75,136.5,190.51,241.07
						C1656.21,1746.35,1659.19,1778.94,1654.21,1810.79z"/>
				</g>
				<g class="st9">
					<path class="st4" d="M745.38,2698.72l9.5,377.67c0.75,30.31-23.6,55.31-53.91,55.31H269.24c-26.12,0-48.84-18.58-53.35-44.32
						c-9.87-56.24,4.52-108.43,34.22-145.77c0,0.05,0,0.05,0,0.09c-0.28,101.03,102.66,138.79,273.75,118.49
						c171.1-20.3,78.08-307.74,76.82-421.99c-1.26-114.25,29.24-287.67,29.24-287.67l144.28,56.85l92.23,7.36L745.38,2698.72z"/>
				</g>
				<g class="st9">
					<path class="st4" d="M1421.57,3096.04c-7.87,21.37-28.17,35.66-50.93,35.66h-364.91c-29.8,0-53.91-24.16-53.91-53.91v-343.36
						l-85.38-319.71l-0.19,0.42l0.19-11.27c94.7-2.14,182.13-16.67,259.13-49.3c-1.68,2.37-62.57,88.83-46.51,309.23
						c16.29,223.47-76.82,353.83,62.85,402.72c98.7,34.55,203.97-43.67,252.06-118.02
						C1423.85,2979.6,1446.8,3027.55,1421.57,3096.04z"/>
				</g>
			</g>
		</g>
	</g>
</g>
</svg>
